<?xml version="1.0" encoding="UTF-8"?>
<svg viewBox="0 0 1440 525" xmlns="http://www.w3.org/2000/svg" xmlns:xlink="http://www.w3.org/1999/xlink">
<defs>
<rect id="a" width="1440" height="523.8"/>
</defs>
<g transform="translate(0 .68)" fill="none" fill-rule="evenodd">
<mask id="b" fill="#fff">
<use xlink:href="#a"/>
</mask>
<use fill="#D8D8D8" xlink:href="#a"/>
<g fill-rule="nonzero" mask="url(#b)" stroke-width="1.51">
<g transform="translate(-378.85 -201.4)">
<polygon points="1840.5 1.223 1685.3 190.79 1871.1 260.51" fill="#9E6F62" stroke="#9E6F62"/>
<polygon points="1842.5 457.41 1737.4 665.33 1866 605.4" fill="#C98D6D" stroke="#C98D6D"/>
<polygon points="1866 605.4 1737.4 665.33 1866 792.52" fill="#D49571" stroke="#D49571"/>
<polygon points="1685.3 190.79 1740.4 375.47 1871.1 260.51" fill="#AB7A66" stroke="#AB7A66"/>
<polygon points="1740.4 375.47 1842.5 457.41 1871.1 260.51" fill="#B37D68" stroke="#B37D68"/>
<polygon points="1737.4 665.33 1756.8 865.91 1866 792.52" fill="#DE9D74" stroke="#DE9D74"/>
<polygon points="1740.4 375.47 1737.4 665.33 1842.5 457.41" fill="#C1896D" stroke="#C1896D"/>
<polygon points="1563.9 628.64 1737.4 665.33 1740.4 375.47" fill="#C99471" stroke="#C99471"/>
<polygon points="1542.4 421.95 1563.9 628.64 1740.4 375.47" fill="#C29171" stroke="#C29171"/>
<polygon points="1563.9 628.64 1547.5 869.58 1737.4 665.33" fill="#DCA478" stroke="#DCA478"/>
<polygon points="1685.3 190.79 1597.5 238.49 1740.4 375.47" fill="#AC7F69" stroke="#AC7F69"/>
<polygon points="1737.4 665.33 1547.5 869.58 1756.8 865.91" fill="#E3A678" stroke="#E3A678"/>
<polygon points="1597.5 238.49 1542.4 421.95 1740.4 375.47" fill="#B4876C" stroke="#B4876C"/>
<polygon points="1588.4 96.619 1597.5 238.49 1685.3 190.79" fill="#A37B68" stroke="#A37B68"/>
<polygon points="1542.4 421.95 1465.9 580.94 1563.9 628.64" fill="#CB9C76" stroke="#CB9C76"/>
<polygon points="1454.6 863.46 1547.5 869.58 1563.9 628.64" fill="#E4AF7D" stroke="#E4AF7D"/>
<polygon points="1588.4 96.619 1451.6 198.13 1597.5 238.49" fill="#A47F6A" stroke="#A47F6A"/>
<polygon points="1451.6 198.13 1542.4 421.95 1597.5 238.49" fill="#B0886E" stroke="#B0886E"/>
<polygon points="1463.8 452.52 1465.9 580.94 1542.4 421.95" fill="#C59975" stroke="#C59975"/>
<polygon points="1465.9 580.94 1454.6 863.46 1563.9 628.64" fill="#DBA97B" stroke="#DBA97B"/>
<polygon points="1451.6 198.13 1463.8 452.52 1542.4 421.95" fill="#B89171" stroke="#B89171"/>
<polygon points="1329.1 763.17 1454.6 863.46 1465.9 580.94" fill="#E1B27F" stroke="#E1B27F"/>
<polygon points="1451.6 198.13 1310.7 206.69 1463.8 452.52" fill="#B29071" stroke="#B29071"/>
<polygon points="1310.7 206.69 1294.4 467.2 1463.8 452.52" fill="#BC9A76" stroke="#BC9A76"/>
<polygon points="1277 556.48 1329.1 763.17 1465.9 580.94" fill="#D7AD7E" stroke="#D7AD7E"/>
<polygon points="1463.8 452.52 1294.4 467.2 1465.9 580.94" fill="#C8A078" stroke="#C8A078"/>
<polygon points="1294.4 467.2 1277 556.48 1465.9 580.94" fill="#CCA77B" stroke="#CCA77B"/>
<polygon points="1289.3 122.3 1310.7 206.69 1451.6 198.13" fill="#A78B70" stroke="#A78B70"/>
<polygon points="1117.8 185.9 1138.2 499 1294.4 467.2" fill="#BDA27A" stroke="#BDA27A"/>
<polygon points="1117.8 185.9 1294.4 467.2 1310.7 206.69" fill="#B49A77" stroke="#B49A77"/>
<polygon points="1277 556.48 1133.1 660.44 1329.1 763.17" fill="#DBB681" stroke="#DBB681"/>
<polygon points="1133.1 660.44 1134.1 790.08 1329.1 763.17" fill="#E4BE85" stroke="#E4BE85"/>
<polygon points="1289.3 122.3 1117.8 185.9 1310.7 206.69" fill="#A89273" stroke="#A89273"/>
<polygon points="1138.2 499 1277 556.48 1294.4 467.2" fill="#CBAB7D" stroke="#CBAB7D"/>
<polygon points="1138.2 499 1133.1 660.44 1277 556.48" fill="#D0B080" stroke="#D0B080"/>
<polygon points="1006.5 200.58 1005.5 476.98 1117.8 185.9" fill="#A79274" stroke="#A79274"/>
<polygon points="1117.8 185.9 1005.5 476.98 1138.2 499" fill="#B59D78" stroke="#B59D78"/>
<polygon points="1006.5 611.52 1133.1 660.44 1138.2 499" fill="#CBAC7E" stroke="#CBAC7E"/>
<polygon points="1133.1 660.44 998.33 746.05 1134.1 790.08" fill="#D9B782" stroke="#D9B782"/>
<polygon points="1005.5 476.98 1006.5 611.52 1138.2 499" fill="#C1A57B" stroke="#C1A57B"/>
<polygon points="1006.5 611.52 998.33 746.05 1133.1 660.44" fill="#CFAF80" stroke="#CFAF80"/>
<polygon points="863.59 373.02 1005.5 476.98 1006.5 200.58" fill="#A69274" stroke="#A69274"/>
<polygon points="1005.5 476.98 866.65 567.49 1006.5 611.52" fill="#BBA17A" stroke="#BBA17A"/>
<polygon points="866.65 567.49 998.33 746.05 1006.5 611.52" fill="#C4A87C" stroke="#C4A87C"/>
<polygon points="800.3 314.32 863.59 373.02 1006.5 200.58" fill="#9B8971" stroke="#9B8971"/>
<polygon points="774.78 57.482 800.3 314.32 1006.5 200.58" fill="#8E7F6D" stroke="#8E7F6D"/>
<polygon points="863.59 373.02 866.65 567.49 1005.5 476.98" fill="#AF9876" stroke="#AF9876"/>
<polygon points="866.65 567.49 788.05 861.01 998.33 746.05" fill="#C7A97D" stroke="#C7A97D"/>
<polygon points="774.78 57.482 648.2 189.57 800.3 314.32" fill="#83786A" stroke="#83786A"/>
<polygon points="800.3 314.32 708.43 453.74 863.59 373.02" fill="#9B8A71" stroke="#9B8A71"/>
<polygon points="685.97 577.27 788.05 861.01 866.65 567.49" fill="#B89E79" stroke="#B89E79"/>
<polygon points="863.59 373.02 708.43 453.74 866.65 567.49" fill="#A59174" stroke="#A59174"/>
<polygon points="708.43 453.74 685.97 577.27 866.65 567.49" fill="#A79275" stroke="#A79275"/>
<polygon points="685.97 577.27 647.18 851.23 788.05 861.01" fill="#BBA17A" stroke="#BBA17A"/>
<polygon points="648.2 189.57 708.43 453.74 800.3 314.32" fill="#8F816D" stroke="#8F816D"/>
<polygon points="531.83 747.27 647.18 851.23 685.97 577.27" fill="#B09977" stroke="#B09977"/>
<polygon points="648.2 189.57 489.98 298.42 708.43 453.74" fill="#867A6B" stroke="#867A6B"/>
<polygon points="489.98 298.42 499.17 500.22 708.43 453.74" fill="#8C7E6C" stroke="#8C7E6C"/>
<polygon points="499.17 500.22 685.97 577.27 708.43 453.74" fill="#9B8970" stroke="#9B8970"/>
<polygon points="479.77 583.39 531.83 747.27 685.97 577.27" fill="#A28F73" stroke="#A28F73"/>
<polygon points="499.17 500.22 479.77 583.39 685.97 577.27" fill="#998770" stroke="#998770"/>
<polygon points="464.46 81.943 489.98 298.42 648.2 189.57" fill="#726C65" stroke="#726C65"/>
<polygon points="464.46 81.943 350.13 133.31 489.98 298.42" fill="#696562" stroke="#696562"/>
<polygon points="489.98 298.42 378.71 315.54 499.17 500.22" fill="#7E7568" stroke="#7E7568"/>
<polygon points="479.77 583.39 353.19 765.62 531.83 747.27" fill="#9F8D72" stroke="#9F8D72"/>
<polygon points="306.24 667.78 353.19 765.62 479.77 583.39" fill="#97866F" stroke="#97866F"/>
<polygon points="350.13 133.31 378.71 315.54 489.98 298.42" fill="#6E6964" stroke="#6E6964"/>
<polygon points="319.51 393.82 479.77 583.39 499.17 500.22" fill="#887C6B" stroke="#887C6B"/>
<polygon points="378.71 315.54 319.51 393.82 499.17 500.22" fill="#7D7368" stroke="#7D7368"/>
<polygon points="319.51 393.82 306.24 667.78 479.77 583.39" fill="#897C6C" stroke="#897C6C"/>
</g>
</g>
</g>
</svg>
