<svg xmlns="http://www.w3.org/2000/svg" width="47" height="47" viewBox="0 0 47 47">
  <g fill="none" transform="translate(.859 .245)">
    <path fill="#E6E6E6" d="M46,2 L46,42 C46,44.209 44.209,46 42,46 L4,46 L8,31 L8,2 C8,0.895 8.895,0 10,0 L44,0 C45.105,0 46,0.895 46,2 Z"/>
    <path fill="#B3B3B3" d="M37 12L31 12C30.447 12 30 11.552 30 11 30 10.448 30.447 10 31 10L37 10C37.553 10 38 10.448 38 11 38 11.552 37.553 12 37 12zM37 20L31 20C30.447 20 30 19.552 30 19 30 18.448 30.447 18 31 18L37 18C37.553 18 38 18.448 38 19 38 19.552 37.553 20 37 20zM37 28L17 28C16.447 28 16 27.552 16 27 16 26.448 16.447 26 17 26L37 26C37.553 26 38 26.448 38 27 38 27.552 37.553 28 37 28zM37 36L17 36C16.447 36 16 35.552 16 35 16 34.448 16.447 34 17 34L37 34C37.553 34 38 34.448 38 35 38 35.552 37.553 36 37 36z"/>
    <path fill="#43A6DD" d="M25,20 L17,20 C16.447,20 16,19.552 16,19 L16,11 C16,10.448 16.447,10 17,10 L25,10 C25.553,10 26,10.448 26,11 L26,19 C26,19.552 25.553,20 25,20 Z"/>
    <path fill="#B3B3B3" d="M4,46 C6.209,46 8,44.209 8,42 L8,29 L1,29 C0.448,29 0,29.448 0,30 L0,42 C0,44.209 1.791,46 4,46 Z"/>
  </g>
</svg>
