<svg xmlns="http://www.w3.org/2000/svg" width="35" height="35" viewBox="0 0 35 35">
  <g fill="none">
    <path fill="#E86C60" d="M33.4782609,0 L1.52173913,0 C0.681305435,0 0,0.681305435 0,1.52173913 L0,33.4782609 C0,34.3186946 0.681305435,35 1.52173913,35 L33.4782609,35 C34.3186946,35 35,34.3186946 35,33.4782609 L35,1.52173913 C35,0.681305435 34.3186946,0 33.4782609,0 Z"/>
    <path fill="#FFF" d="M25.3315467,22.2880685 L20.5434783,17.5 L25.3315467,12.7119315 C25.6286891,12.4147891 25.6286891,11.933037 25.3315467,11.6358946 L23.3641054,9.66844565 C23.066963,9.37131087 22.5852109,9.37131087 22.2880685,9.66844565 L17.5,14.4565217 L12.7119315,9.66845326 C12.4147891,9.37131848 11.933037,9.37131848 11.6358946,9.66845326 L9.66844565,11.6359022 C9.37131087,11.9330446 9.37131087,12.4147967 9.66844565,12.7119391 L14.4565217,17.5 L9.66845326,22.2880685 C9.37131848,22.5852109 9.37131848,23.066963 9.66845326,23.3641054 L11.6359022,25.3315467 C11.9330446,25.6286891 12.4147967,25.6286891 12.7119391,25.3315467 L17.5,20.5434783 L22.2880685,25.3315467 C22.5852109,25.6286891 23.066963,25.6286891 23.3641054,25.3315467 L25.3315467,23.3641054 C25.6286891,23.066963 25.6286891,22.5852109 25.3315467,22.2880685 Z"/>
  </g>
</svg>
